<svg style="position: absolute; width: 0; height: 0; overflow: hidden;" version="1.1" xmlns="http://www.w3.org/2000/svg" xmlns:xlink="http://www.w3.org/1999/xlink">
<defs>
<symbol id="icon-menu" viewBox="0 0 32 32">
<title>menu</title>
<path d="M2 6h28v6h-28zM2 14h28v6h-28zM2 22h28v6h-28z"></path>
</symbol>
<symbol id="icon-facebook" viewBox="0 0 32 32">
<title>facebook</title>
<path fill="#c7b299" style="fill: var(--color1, #c7b299)" d="M16 0c-8.822 0-16 7.178-16 16s7.178 16 16 16c8.822 0 16-7.178 16-16s-7.177-16-16-16zM19.979 16.563h-2.603c0 4.159 0 9.278 0 9.278h-3.857c0 0 0-5.070 0-9.278h-1.834v-3.279h1.834v-2.121c0-1.519 0.722-3.893 3.893-3.893l2.858 0.011v3.183c0 0-1.737 0-2.075 0s-0.818 0.169-0.818 0.893v1.927h2.939l-0.337 3.279z"></path>
</symbol>
<symbol id="icon-instagram" viewBox="0 0 32 32">
<title>instagram</title>
<path fill="#c7b299" style="fill: var(--color1, #c7b299)" d="M15.999 19.203c1.765 0 3.204-1.437 3.204-3.203 0-0.697-0.228-1.341-0.606-1.867-0.582-0.807-1.528-1.336-2.597-1.336s-2.015 0.528-2.598 1.335c-0.379 0.526-0.605 1.17-0.606 1.867-0.002 1.767 1.436 3.204 3.202 3.204z"></path>
<path fill="#c7b299" style="fill: var(--color1, #c7b299)" d="M22.994 12.082v-3.085l-3.085 0.010 0.010 3.085z"></path>
<path fill="#c7b299" style="fill: var(--color1, #c7b299)" d="M16 0c-8.822 0-16 7.178-16 16s7.178 16 16 16c8.822 0 16-7.178 16-16s-7.177-16-16-16zM25.099 14.133v7.45c0 1.941-1.578 3.518-3.517 3.518h-11.165c-1.94 0-3.517-1.577-3.517-3.518v-11.165c0-1.94 1.577-3.517 3.517-3.517h11.164c1.94 0 3.518 1.577 3.518 3.517v3.715z"></path>
<path fill="#c7b299" style="fill: var(--color1, #c7b299)" d="M20.977 16c0 2.744-2.232 4.977-4.977 4.977s-4.977-2.234-4.977-4.977c0-0.66 0.131-1.291 0.366-1.867h-2.716v7.45c0 0.963 0.782 1.743 1.744 1.743h11.164c0.961 0 1.744-0.78 1.744-1.743v-7.45h-2.718c0.237 0.576 0.37 1.207 0.37 1.867z"></path>
</symbol>
<symbol id="icon-twitter" viewBox="0 0 32 32">
<title>twitter</title>
<path fill="#c7b299" style="fill: var(--color1, #c7b299)" d="M16 0c-8.822 0-16 7.178-16 16s7.178 16 16 16c8.822 0 16-7.178 16-16s-7.177-16-16-16zM23.138 12.338c0.007 0.159 0.011 0.318 0.011 0.478 0 4.866-3.703 10.476-10.479 10.476-2.080 0-4.016-0.608-5.645-1.653 0.288 0.034 0.581 0.052 0.878 0.052 1.726 0 3.313-0.589 4.574-1.576-1.611-0.030-2.972-1.094-3.44-2.558 0.224 0.043 0.456 0.066 0.692 0.066 0.336 0 0.662-0.044 0.971-0.128-1.685-0.338-2.954-1.826-2.954-3.611 0-0.015 0-0.032 0.001-0.046 0.496 0.275 1.064 0.441 1.667 0.46-0.987-0.659-1.638-1.787-1.638-3.065 0-0.675 0.181-1.308 0.498-1.852 1.816 2.229 4.53 3.694 7.59 3.849-0.063-0.27-0.095-0.55-0.095-0.84 0-2.033 1.649-3.683 3.682-3.683 1.060 0 2.015 0.447 2.688 1.163 0.84-0.165 1.626-0.47 2.339-0.894-0.277 0.86-0.859 1.582-1.622 2.038 0.746-0.089 1.457-0.286 2.115-0.579-0.491 0.737-1.116 1.386-1.835 1.904z"></path>
</symbol>
</defs>
</svg>
